G04 #@! TF.GenerationSoftware,KiCad,Pcbnew,no-vcs-found-7602~57~ubuntu16.04.1*
G04 #@! TF.CreationDate,2017-02-08T15:14:31-05:00*
G04 #@! TF.ProjectId,template_5x3,74656D706C6174655F3578332E6B6963,1.0*
G04 #@! TF.FileFunction,Copper,L1,Top,Signal*
G04 #@! TF.FilePolarity,Positive*
%FSLAX46Y46*%
G04 Gerber Fmt 4.6, Leading zero omitted, Abs format (unit mm)*
G04 Created by KiCad (PCBNEW no-vcs-found-7602~57~ubuntu16.04.1) date Wed Feb  8 15:14:31 2017*
%MOMM*%
%LPD*%
G01*
G04 APERTURE LIST*
%ADD10C,0.100000*%
%ADD11C,0.228600*%
%ADD12O,1.854200X2.540000*%
%ADD13R,1.854200X2.540000*%
%ADD14C,3.556000*%
G04 APERTURE END LIST*
D10*
D11*
X190500000Y-72390000D02*
X69850000Y-72390000D01*
X190500000Y-138430000D02*
X190500000Y-72390000D01*
X69850000Y-138430000D02*
X190500000Y-138430000D01*
X69850000Y-72390000D02*
X69850000Y-138430000D01*
D12*
X74930000Y-74930000D03*
X77470000Y-74930000D03*
D13*
X72390000Y-74930000D03*
D12*
X80010000Y-74930000D03*
X82550000Y-74930000D03*
X85090000Y-74930000D03*
X87630000Y-74930000D03*
X90170000Y-74930000D03*
X92710000Y-74930000D03*
X95250000Y-74930000D03*
X97790000Y-74930000D03*
X100330000Y-74930000D03*
X102870000Y-74930000D03*
X105410000Y-74930000D03*
X107950000Y-74930000D03*
X110490000Y-74930000D03*
X110490000Y-135890000D03*
X107950000Y-135890000D03*
X105410000Y-135890000D03*
X102870000Y-135890000D03*
X100330000Y-135890000D03*
X97790000Y-135890000D03*
X95250000Y-135890000D03*
X92710000Y-135890000D03*
X90170000Y-135890000D03*
X87630000Y-135890000D03*
X85090000Y-135890000D03*
X82550000Y-135890000D03*
X80010000Y-135890000D03*
X77470000Y-135890000D03*
X74930000Y-135890000D03*
X72390000Y-135890000D03*
D14*
X73660000Y-80010000D03*
X73660000Y-130810000D03*
X137160000Y-135890000D03*
X137160000Y-74930000D03*
D12*
X113030000Y-135890000D03*
X115570000Y-135890000D03*
X118110000Y-135890000D03*
X120650000Y-135890000D03*
X123190000Y-135890000D03*
X125730000Y-135890000D03*
X128270000Y-135890000D03*
X130810000Y-135890000D03*
X133350000Y-135890000D03*
X113030000Y-74930000D03*
X115570000Y-74930000D03*
X118110000Y-74930000D03*
X120650000Y-74930000D03*
X123190000Y-74930000D03*
X125730000Y-74930000D03*
X128270000Y-74930000D03*
X130810000Y-74930000D03*
X133350000Y-74930000D03*
M02*
