M48
;DRILL file {KiCad no-vcs-found-7602~57~ubuntu16.04.1} date Wed Feb  8 15:14:34 2017
;FORMAT={-:-/ absolute / inch / decimal}
FMAT,2
INCH,TZ
T1C0.043
T2C0.130
%
G90
G05
M72
T1
X2.85Y-2.95
X2.85Y-5.35
X2.95Y-2.95
X2.95Y-5.35
X3.05Y-2.95
X3.05Y-5.35
X3.15Y-2.95
X3.15Y-5.35
X3.25Y-2.95
X3.25Y-5.35
X3.35Y-2.95
X3.35Y-5.35
X3.45Y-2.95
X3.45Y-5.35
X3.55Y-2.95
X3.55Y-5.35
X3.65Y-2.95
X3.65Y-5.35
X3.75Y-2.95
X3.75Y-5.35
X3.85Y-2.95
X3.85Y-5.35
X3.95Y-2.95
X3.95Y-5.35
X4.05Y-2.95
X4.05Y-5.35
X4.15Y-2.95
X4.15Y-5.35
X4.25Y-2.95
X4.25Y-5.35
X4.35Y-2.95
X4.35Y-5.35
X4.45Y-2.95
X4.45Y-5.35
X4.55Y-2.95
X4.55Y-5.35
X4.65Y-2.95
X4.65Y-5.35
X4.75Y-2.95
X4.75Y-5.35
X4.85Y-2.95
X4.85Y-5.35
X4.95Y-2.95
X4.95Y-5.35
X5.05Y-2.95
X5.05Y-5.35
X5.15Y-2.95
X5.15Y-5.35
X5.25Y-2.95
X5.25Y-5.35
T2
X2.9Y-3.15
X2.9Y-5.15
X5.4Y-2.95
X5.4Y-5.35
T0
M30
