G04 #@! TF.GenerationSoftware,KiCad,Pcbnew,no-vcs-found-7571~57~ubuntu16.04.1*
G04 #@! TF.CreationDate,2017-02-02T16:12:20-05:00*
G04 #@! TF.ProjectId,template_5x3,74656D706C6174655F3578332E6B6963,1.0*
G04 #@! TF.FileFunction,Legend,Top*
G04 #@! TF.FilePolarity,Positive*
%FSLAX46Y46*%
G04 Gerber Fmt 4.6, Leading zero omitted, Abs format (unit mm)*
G04 Created by KiCad (PCBNEW no-vcs-found-7571~57~ubuntu16.04.1) date Thu Feb  2 16:12:20 2017*
%MOMM*%
%LPD*%
G01*
G04 APERTURE LIST*
%ADD10C,0.100000*%
%ADD11C,0.254000*%
%ADD12C,0.381000*%
%ADD13C,0.190500*%
%ADD14C,0.228600*%
%ADD15C,3.759200*%
%ADD16O,1.524000X2.540000*%
%ADD17O,2.540000X1.524000*%
%ADD18C,1.930400*%
%ADD19O,4.572000X3.556000*%
%ADD20O,4.064000X5.080000*%
%ADD21O,5.080000X3.556000*%
%ADD22O,5.080000X3.048000*%
%ADD23O,2.032000X1.524000*%
%ADD24O,1.524000X2.032000*%
%ADD25O,1.651000X2.159000*%
%ADD26R,4.191000X1.778000*%
%ADD27C,1.600200*%
%ADD28R,5.029200X2.997200*%
%ADD29R,1.778000X4.191000*%
%ADD30R,2.997200X5.029200*%
%ADD31R,5.160000X4.000000*%
%ADD32R,1.640000X1.800000*%
G04 APERTURE END LIST*
D10*
D11*
X206622952Y-120722571D02*
X207397047Y-120722571D01*
X200272952Y-120722571D02*
X201047047Y-120722571D01*
X200660000Y-121109619D02*
X200660000Y-120335523D01*
X197841809Y-90629619D02*
X197358000Y-90629619D01*
X197358000Y-89613619D01*
X198180476Y-90629619D02*
X198180476Y-89952285D01*
X198180476Y-89613619D02*
X198132095Y-89662000D01*
X198180476Y-89710380D01*
X198228857Y-89662000D01*
X198180476Y-89613619D01*
X198180476Y-89710380D01*
X199099714Y-89952285D02*
X199099714Y-90774761D01*
X199051333Y-90871523D01*
X199002952Y-90919904D01*
X198906190Y-90968285D01*
X198761047Y-90968285D01*
X198664285Y-90919904D01*
X199099714Y-90581238D02*
X199002952Y-90629619D01*
X198809428Y-90629619D01*
X198712666Y-90581238D01*
X198664285Y-90532857D01*
X198615904Y-90436095D01*
X198615904Y-90145809D01*
X198664285Y-90049047D01*
X198712666Y-90000666D01*
X198809428Y-89952285D01*
X199002952Y-89952285D01*
X199099714Y-90000666D01*
X199583523Y-90629619D02*
X199583523Y-89613619D01*
X200018952Y-90629619D02*
X200018952Y-90097428D01*
X199970571Y-90000666D01*
X199873809Y-89952285D01*
X199728666Y-89952285D01*
X199631904Y-90000666D01*
X199583523Y-90049047D01*
X200357619Y-89952285D02*
X200744666Y-89952285D01*
X200502761Y-89613619D02*
X200502761Y-90484476D01*
X200551142Y-90581238D01*
X200647904Y-90629619D01*
X200744666Y-90629619D01*
X201034952Y-90581238D02*
X201131714Y-90629619D01*
X201325238Y-90629619D01*
X201422000Y-90581238D01*
X201470380Y-90484476D01*
X201470380Y-90436095D01*
X201422000Y-90339333D01*
X201325238Y-90290952D01*
X201180095Y-90290952D01*
X201083333Y-90242571D01*
X201034952Y-90145809D01*
X201034952Y-90097428D01*
X201083333Y-90000666D01*
X201180095Y-89952285D01*
X201325238Y-89952285D01*
X201422000Y-90000666D01*
D12*
X200097571Y-118091857D02*
X200315285Y-118164428D01*
X200678142Y-118164428D01*
X200823285Y-118091857D01*
X200895857Y-118019285D01*
X200968428Y-117874142D01*
X200968428Y-117729000D01*
X200895857Y-117583857D01*
X200823285Y-117511285D01*
X200678142Y-117438714D01*
X200387857Y-117366142D01*
X200242714Y-117293571D01*
X200170142Y-117221000D01*
X200097571Y-117075857D01*
X200097571Y-116930714D01*
X200170142Y-116785571D01*
X200242714Y-116713000D01*
X200387857Y-116640428D01*
X200750714Y-116640428D01*
X200968428Y-116713000D01*
X202202142Y-118091857D02*
X202057000Y-118164428D01*
X201766714Y-118164428D01*
X201621571Y-118091857D01*
X201549000Y-117946714D01*
X201549000Y-117366142D01*
X201621571Y-117221000D01*
X201766714Y-117148428D01*
X202057000Y-117148428D01*
X202202142Y-117221000D01*
X202274714Y-117366142D01*
X202274714Y-117511285D01*
X201549000Y-117656428D01*
X202927857Y-118164428D02*
X202927857Y-117148428D01*
X202927857Y-117438714D02*
X203000428Y-117293571D01*
X203073000Y-117221000D01*
X203218142Y-117148428D01*
X203363285Y-117148428D01*
X203871285Y-118164428D02*
X203871285Y-117148428D01*
X203871285Y-116640428D02*
X203798714Y-116713000D01*
X203871285Y-116785571D01*
X203943857Y-116713000D01*
X203871285Y-116640428D01*
X203871285Y-116785571D01*
X205250142Y-118164428D02*
X205250142Y-117366142D01*
X205177571Y-117221000D01*
X205032428Y-117148428D01*
X204742142Y-117148428D01*
X204597000Y-117221000D01*
X205250142Y-118091857D02*
X205105000Y-118164428D01*
X204742142Y-118164428D01*
X204597000Y-118091857D01*
X204524428Y-117946714D01*
X204524428Y-117801571D01*
X204597000Y-117656428D01*
X204742142Y-117583857D01*
X205105000Y-117583857D01*
X205250142Y-117511285D01*
X206193571Y-118164428D02*
X206048428Y-118091857D01*
X205975857Y-117946714D01*
X205975857Y-116640428D01*
X206629000Y-116640428D02*
X207572428Y-116640428D01*
X207064428Y-117221000D01*
X207282142Y-117221000D01*
X207427285Y-117293571D01*
X207499857Y-117366142D01*
X207572428Y-117511285D01*
X207572428Y-117874142D01*
X207499857Y-118019285D01*
X207427285Y-118091857D01*
X207282142Y-118164428D01*
X206846714Y-118164428D01*
X206701571Y-118091857D01*
X206629000Y-118019285D01*
X198101857Y-88827428D02*
X198174428Y-88609714D01*
X198174428Y-88246857D01*
X198101857Y-88101714D01*
X198029285Y-88029142D01*
X197884142Y-87956571D01*
X197739000Y-87956571D01*
X197593857Y-88029142D01*
X197521285Y-88101714D01*
X197448714Y-88246857D01*
X197376142Y-88537142D01*
X197303571Y-88682285D01*
X197231000Y-88754857D01*
X197085857Y-88827428D01*
X196940714Y-88827428D01*
X196795571Y-88754857D01*
X196723000Y-88682285D01*
X196650428Y-88537142D01*
X196650428Y-88174285D01*
X196723000Y-87956571D01*
X198101857Y-86722857D02*
X198174428Y-86868000D01*
X198174428Y-87158285D01*
X198101857Y-87303428D01*
X197956714Y-87376000D01*
X197376142Y-87376000D01*
X197231000Y-87303428D01*
X197158428Y-87158285D01*
X197158428Y-86868000D01*
X197231000Y-86722857D01*
X197376142Y-86650285D01*
X197521285Y-86650285D01*
X197666428Y-87376000D01*
X198174428Y-85997142D02*
X197158428Y-85997142D01*
X197448714Y-85997142D02*
X197303571Y-85924571D01*
X197231000Y-85852000D01*
X197158428Y-85706857D01*
X197158428Y-85561714D01*
X198174428Y-85053714D02*
X197158428Y-85053714D01*
X196650428Y-85053714D02*
X196723000Y-85126285D01*
X196795571Y-85053714D01*
X196723000Y-84981142D01*
X196650428Y-85053714D01*
X196795571Y-85053714D01*
X198174428Y-83674857D02*
X197376142Y-83674857D01*
X197231000Y-83747428D01*
X197158428Y-83892571D01*
X197158428Y-84182857D01*
X197231000Y-84328000D01*
X198101857Y-83674857D02*
X198174428Y-83820000D01*
X198174428Y-84182857D01*
X198101857Y-84328000D01*
X197956714Y-84400571D01*
X197811571Y-84400571D01*
X197666428Y-84328000D01*
X197593857Y-84182857D01*
X197593857Y-83820000D01*
X197521285Y-83674857D01*
X198174428Y-82731428D02*
X198101857Y-82876571D01*
X197956714Y-82949142D01*
X196650428Y-82949142D01*
X196795571Y-82223428D02*
X196723000Y-82150857D01*
X196650428Y-82005714D01*
X196650428Y-81642857D01*
X196723000Y-81497714D01*
X196795571Y-81425142D01*
X196940714Y-81352571D01*
X197085857Y-81352571D01*
X197303571Y-81425142D01*
X198174428Y-82296000D01*
X198174428Y-81352571D01*
X200097571Y-77451857D02*
X200315285Y-77524428D01*
X200678142Y-77524428D01*
X200823285Y-77451857D01*
X200895857Y-77379285D01*
X200968428Y-77234142D01*
X200968428Y-77089000D01*
X200895857Y-76943857D01*
X200823285Y-76871285D01*
X200678142Y-76798714D01*
X200387857Y-76726142D01*
X200242714Y-76653571D01*
X200170142Y-76581000D01*
X200097571Y-76435857D01*
X200097571Y-76290714D01*
X200170142Y-76145571D01*
X200242714Y-76073000D01*
X200387857Y-76000428D01*
X200750714Y-76000428D01*
X200968428Y-76073000D01*
X202202142Y-77451857D02*
X202057000Y-77524428D01*
X201766714Y-77524428D01*
X201621571Y-77451857D01*
X201549000Y-77306714D01*
X201549000Y-76726142D01*
X201621571Y-76581000D01*
X201766714Y-76508428D01*
X202057000Y-76508428D01*
X202202142Y-76581000D01*
X202274714Y-76726142D01*
X202274714Y-76871285D01*
X201549000Y-77016428D01*
X202927857Y-77524428D02*
X202927857Y-76508428D01*
X202927857Y-76798714D02*
X203000428Y-76653571D01*
X203073000Y-76581000D01*
X203218142Y-76508428D01*
X203363285Y-76508428D01*
X203871285Y-77524428D02*
X203871285Y-76508428D01*
X203871285Y-76000428D02*
X203798714Y-76073000D01*
X203871285Y-76145571D01*
X203943857Y-76073000D01*
X203871285Y-76000428D01*
X203871285Y-76145571D01*
X205250142Y-77524428D02*
X205250142Y-76726142D01*
X205177571Y-76581000D01*
X205032428Y-76508428D01*
X204742142Y-76508428D01*
X204597000Y-76581000D01*
X205250142Y-77451857D02*
X205105000Y-77524428D01*
X204742142Y-77524428D01*
X204597000Y-77451857D01*
X204524428Y-77306714D01*
X204524428Y-77161571D01*
X204597000Y-77016428D01*
X204742142Y-76943857D01*
X205105000Y-76943857D01*
X205250142Y-76871285D01*
X206193571Y-77524428D02*
X206048428Y-77451857D01*
X205975857Y-77306714D01*
X205975857Y-76000428D01*
X207572428Y-77524428D02*
X206701571Y-77524428D01*
X207137000Y-77524428D02*
X207137000Y-76000428D01*
X206991857Y-76218142D01*
X206846714Y-76363285D01*
X206701571Y-76435857D01*
X107296857Y-88827428D02*
X107369428Y-88609714D01*
X107369428Y-88246857D01*
X107296857Y-88101714D01*
X107224285Y-88029142D01*
X107079142Y-87956571D01*
X106934000Y-87956571D01*
X106788857Y-88029142D01*
X106716285Y-88101714D01*
X106643714Y-88246857D01*
X106571142Y-88537142D01*
X106498571Y-88682285D01*
X106426000Y-88754857D01*
X106280857Y-88827428D01*
X106135714Y-88827428D01*
X105990571Y-88754857D01*
X105918000Y-88682285D01*
X105845428Y-88537142D01*
X105845428Y-88174285D01*
X105918000Y-87956571D01*
X107296857Y-86722857D02*
X107369428Y-86868000D01*
X107369428Y-87158285D01*
X107296857Y-87303428D01*
X107151714Y-87376000D01*
X106571142Y-87376000D01*
X106426000Y-87303428D01*
X106353428Y-87158285D01*
X106353428Y-86868000D01*
X106426000Y-86722857D01*
X106571142Y-86650285D01*
X106716285Y-86650285D01*
X106861428Y-87376000D01*
X107369428Y-85997142D02*
X106353428Y-85997142D01*
X106643714Y-85997142D02*
X106498571Y-85924571D01*
X106426000Y-85852000D01*
X106353428Y-85706857D01*
X106353428Y-85561714D01*
X107369428Y-85053714D02*
X106353428Y-85053714D01*
X105845428Y-85053714D02*
X105918000Y-85126285D01*
X105990571Y-85053714D01*
X105918000Y-84981142D01*
X105845428Y-85053714D01*
X105990571Y-85053714D01*
X107369428Y-83674857D02*
X106571142Y-83674857D01*
X106426000Y-83747428D01*
X106353428Y-83892571D01*
X106353428Y-84182857D01*
X106426000Y-84328000D01*
X107296857Y-83674857D02*
X107369428Y-83820000D01*
X107369428Y-84182857D01*
X107296857Y-84328000D01*
X107151714Y-84400571D01*
X107006571Y-84400571D01*
X106861428Y-84328000D01*
X106788857Y-84182857D01*
X106788857Y-83820000D01*
X106716285Y-83674857D01*
X107369428Y-82731428D02*
X107296857Y-82876571D01*
X107151714Y-82949142D01*
X105845428Y-82949142D01*
X105845428Y-81860571D02*
X105845428Y-81715428D01*
X105918000Y-81570285D01*
X105990571Y-81497714D01*
X106135714Y-81425142D01*
X106426000Y-81352571D01*
X106788857Y-81352571D01*
X107079142Y-81425142D01*
X107224285Y-81497714D01*
X107296857Y-81570285D01*
X107369428Y-81715428D01*
X107369428Y-81860571D01*
X107296857Y-82005714D01*
X107224285Y-82078285D01*
X107079142Y-82150857D01*
X106788857Y-82223428D01*
X106426000Y-82223428D01*
X106135714Y-82150857D01*
X105990571Y-82078285D01*
X105918000Y-82005714D01*
X105845428Y-81860571D01*
D13*
X196505285Y-107732285D02*
X196469000Y-107696000D01*
X196432714Y-107623428D01*
X196432714Y-107442000D01*
X196469000Y-107369428D01*
X196505285Y-107333142D01*
X196577857Y-107296857D01*
X196650428Y-107296857D01*
X196759285Y-107333142D01*
X197194714Y-107768571D01*
X197194714Y-107296857D01*
X197122142Y-106970285D02*
X197158428Y-106934000D01*
X197194714Y-106970285D01*
X197158428Y-107006571D01*
X197122142Y-106970285D01*
X197194714Y-106970285D01*
X196432714Y-106244571D02*
X196432714Y-106607428D01*
X196795571Y-106643714D01*
X196759285Y-106607428D01*
X196723000Y-106534857D01*
X196723000Y-106353428D01*
X196759285Y-106280857D01*
X196795571Y-106244571D01*
X196868142Y-106208285D01*
X197049571Y-106208285D01*
X197122142Y-106244571D01*
X197158428Y-106280857D01*
X197194714Y-106353428D01*
X197194714Y-106534857D01*
X197158428Y-106607428D01*
X197122142Y-106643714D01*
X197194714Y-105954285D02*
X196686714Y-105555142D01*
X196686714Y-105954285D02*
X197194714Y-105555142D01*
X196432714Y-104902000D02*
X196432714Y-105264857D01*
X196795571Y-105301142D01*
X196759285Y-105264857D01*
X196723000Y-105192285D01*
X196723000Y-105010857D01*
X196759285Y-104938285D01*
X196795571Y-104902000D01*
X196868142Y-104865714D01*
X197049571Y-104865714D01*
X197122142Y-104902000D01*
X197158428Y-104938285D01*
X197194714Y-105010857D01*
X197194714Y-105192285D01*
X197158428Y-105264857D01*
X197122142Y-105301142D01*
X197122142Y-104539142D02*
X197158428Y-104502857D01*
X197194714Y-104539142D01*
X197158428Y-104575428D01*
X197122142Y-104539142D01*
X197194714Y-104539142D01*
X196432714Y-103813428D02*
X196432714Y-104176285D01*
X196795571Y-104212571D01*
X196759285Y-104176285D01*
X196723000Y-104103714D01*
X196723000Y-103922285D01*
X196759285Y-103849714D01*
X196795571Y-103813428D01*
X196868142Y-103777142D01*
X197049571Y-103777142D01*
X197122142Y-103813428D01*
X197158428Y-103849714D01*
X197194714Y-103922285D01*
X197194714Y-104103714D01*
X197158428Y-104176285D01*
X197122142Y-104212571D01*
X197122142Y-102434571D02*
X197158428Y-102470857D01*
X197194714Y-102579714D01*
X197194714Y-102652285D01*
X197158428Y-102761142D01*
X197085857Y-102833714D01*
X197013285Y-102870000D01*
X196868142Y-102906285D01*
X196759285Y-102906285D01*
X196614142Y-102870000D01*
X196541571Y-102833714D01*
X196469000Y-102761142D01*
X196432714Y-102652285D01*
X196432714Y-102579714D01*
X196469000Y-102470857D01*
X196505285Y-102434571D01*
X197158428Y-101817714D02*
X197194714Y-101890285D01*
X197194714Y-102035428D01*
X197158428Y-102108000D01*
X197085857Y-102144285D01*
X196795571Y-102144285D01*
X196723000Y-102108000D01*
X196686714Y-102035428D01*
X196686714Y-101890285D01*
X196723000Y-101817714D01*
X196795571Y-101781428D01*
X196868142Y-101781428D01*
X196940714Y-102144285D01*
X196686714Y-101454857D02*
X197194714Y-101454857D01*
X196759285Y-101454857D02*
X196723000Y-101418571D01*
X196686714Y-101346000D01*
X196686714Y-101237142D01*
X196723000Y-101164571D01*
X196795571Y-101128285D01*
X197194714Y-101128285D01*
X196686714Y-100874285D02*
X196686714Y-100584000D01*
X196432714Y-100765428D02*
X197085857Y-100765428D01*
X197158428Y-100729142D01*
X197194714Y-100656571D01*
X197194714Y-100584000D01*
X197158428Y-100039714D02*
X197194714Y-100112285D01*
X197194714Y-100257428D01*
X197158428Y-100330000D01*
X197085857Y-100366285D01*
X196795571Y-100366285D01*
X196723000Y-100330000D01*
X196686714Y-100257428D01*
X196686714Y-100112285D01*
X196723000Y-100039714D01*
X196795571Y-100003428D01*
X196868142Y-100003428D01*
X196940714Y-100366285D01*
X197194714Y-99676857D02*
X196686714Y-99676857D01*
X196831857Y-99676857D02*
X196759285Y-99640571D01*
X196723000Y-99604285D01*
X196686714Y-99531714D01*
X196686714Y-99459142D01*
X196904428Y-98624571D02*
X196904428Y-98044000D01*
X197194714Y-98334285D02*
X196614142Y-98334285D01*
D14*
X211455000Y-75311000D02*
X93345000Y-75311000D01*
X211455000Y-130429000D02*
X211455000Y-75311000D01*
X93345000Y-130429000D02*
X211455000Y-130429000D01*
X93345000Y-75311000D02*
X93345000Y-130429000D01*
D11*
X110949619Y-115563952D02*
X110949619Y-115370428D01*
X110901238Y-115273666D01*
X110852857Y-115225285D01*
X110707714Y-115128523D01*
X110514190Y-115080142D01*
X110127142Y-115080142D01*
X110030380Y-115128523D01*
X109982000Y-115176904D01*
X109933619Y-115273666D01*
X109933619Y-115467190D01*
X109982000Y-115563952D01*
X110030380Y-115612333D01*
X110127142Y-115660714D01*
X110369047Y-115660714D01*
X110465809Y-115612333D01*
X110514190Y-115563952D01*
X110562571Y-115467190D01*
X110562571Y-115273666D01*
X110514190Y-115176904D01*
X110465809Y-115128523D01*
X110369047Y-115080142D01*
X109933619Y-114789857D02*
X110949619Y-114451190D01*
X109933619Y-114112523D01*
D13*
X204343000Y-109909428D02*
X204923571Y-109909428D01*
X204633285Y-110199714D02*
X204633285Y-109619142D01*
X205685571Y-110199714D02*
X205250142Y-110199714D01*
X205467857Y-110199714D02*
X205467857Y-109437714D01*
X205395285Y-109546571D01*
X205322714Y-109619142D01*
X205250142Y-109655428D01*
X205975857Y-109510285D02*
X206012142Y-109474000D01*
X206084714Y-109437714D01*
X206266142Y-109437714D01*
X206338714Y-109474000D01*
X206375000Y-109510285D01*
X206411285Y-109582857D01*
X206411285Y-109655428D01*
X206375000Y-109764285D01*
X205939571Y-110199714D01*
X206411285Y-110199714D01*
X206737857Y-109909428D02*
X207318428Y-109909428D01*
X208007857Y-109691714D02*
X208007857Y-110199714D01*
X207826428Y-109401428D02*
X207645000Y-109945714D01*
X208116714Y-109945714D01*
X208370714Y-109510285D02*
X208407000Y-109474000D01*
X208479571Y-109437714D01*
X208661000Y-109437714D01*
X208733571Y-109474000D01*
X208769857Y-109510285D01*
X208806142Y-109582857D01*
X208806142Y-109655428D01*
X208769857Y-109764285D01*
X208334428Y-110199714D01*
X208806142Y-110199714D01*
X209023857Y-109437714D02*
X209277857Y-110199714D01*
X209531857Y-109437714D01*
X209785857Y-110199714D02*
X209785857Y-109437714D01*
X209967285Y-109437714D01*
X210076142Y-109474000D01*
X210148714Y-109546571D01*
X210185000Y-109619142D01*
X210221285Y-109764285D01*
X210221285Y-109873142D01*
X210185000Y-110018285D01*
X210148714Y-110090857D01*
X210076142Y-110163428D01*
X209967285Y-110199714D01*
X209785857Y-110199714D01*
X210983285Y-110127142D02*
X210947000Y-110163428D01*
X210838142Y-110199714D01*
X210765571Y-110199714D01*
X210656714Y-110163428D01*
X210584142Y-110090857D01*
X210547857Y-110018285D01*
X210511571Y-109873142D01*
X210511571Y-109764285D01*
X210547857Y-109619142D01*
X210584142Y-109546571D01*
X210656714Y-109474000D01*
X210765571Y-109437714D01*
X210838142Y-109437714D01*
X210947000Y-109474000D01*
X210983285Y-109510285D01*
X189054619Y-120287142D02*
X188038619Y-120287142D01*
X189054619Y-119851714D02*
X188522428Y-119851714D01*
X188425666Y-119900095D01*
X188377285Y-119996857D01*
X188377285Y-120142000D01*
X188425666Y-120238761D01*
X188474047Y-120287142D01*
X188377285Y-119513047D02*
X188377285Y-119126000D01*
X188038619Y-119367904D02*
X188909476Y-119367904D01*
X189006238Y-119319523D01*
X189054619Y-119222761D01*
X189054619Y-119126000D01*
X188377285Y-118932476D02*
X188377285Y-118545428D01*
X188038619Y-118787333D02*
X188909476Y-118787333D01*
X189006238Y-118738952D01*
X189054619Y-118642190D01*
X189054619Y-118545428D01*
X188377285Y-118206761D02*
X189393285Y-118206761D01*
X188425666Y-118206761D02*
X188377285Y-118110000D01*
X188377285Y-117916476D01*
X188425666Y-117819714D01*
X188474047Y-117771333D01*
X188570809Y-117722952D01*
X188861095Y-117722952D01*
X188957857Y-117771333D01*
X189006238Y-117819714D01*
X189054619Y-117916476D01*
X189054619Y-118110000D01*
X189006238Y-118206761D01*
X189006238Y-117335904D02*
X189054619Y-117239142D01*
X189054619Y-117045619D01*
X189006238Y-116948857D01*
X188909476Y-116900476D01*
X188861095Y-116900476D01*
X188764333Y-116948857D01*
X188715952Y-117045619D01*
X188715952Y-117190761D01*
X188667571Y-117287523D01*
X188570809Y-117335904D01*
X188522428Y-117335904D01*
X188425666Y-117287523D01*
X188377285Y-117190761D01*
X188377285Y-117045619D01*
X188425666Y-116948857D01*
X188957857Y-116465047D02*
X189006238Y-116416666D01*
X189054619Y-116465047D01*
X189006238Y-116513428D01*
X188957857Y-116465047D01*
X189054619Y-116465047D01*
X188425666Y-116465047D02*
X188474047Y-116416666D01*
X188522428Y-116465047D01*
X188474047Y-116513428D01*
X188425666Y-116465047D01*
X188522428Y-116465047D01*
X187990238Y-115255523D02*
X189296523Y-116126380D01*
X187990238Y-114191142D02*
X189296523Y-115062000D01*
X188377285Y-113417047D02*
X189199761Y-113417047D01*
X189296523Y-113465428D01*
X189344904Y-113513809D01*
X189393285Y-113610571D01*
X189393285Y-113755714D01*
X189344904Y-113852476D01*
X189006238Y-113417047D02*
X189054619Y-113513809D01*
X189054619Y-113707333D01*
X189006238Y-113804095D01*
X188957857Y-113852476D01*
X188861095Y-113900857D01*
X188570809Y-113900857D01*
X188474047Y-113852476D01*
X188425666Y-113804095D01*
X188377285Y-113707333D01*
X188377285Y-113513809D01*
X188425666Y-113417047D01*
X189054619Y-112933238D02*
X188377285Y-112933238D01*
X188038619Y-112933238D02*
X188087000Y-112981619D01*
X188135380Y-112933238D01*
X188087000Y-112884857D01*
X188038619Y-112933238D01*
X188135380Y-112933238D01*
X188377285Y-112594571D02*
X188377285Y-112207523D01*
X188038619Y-112449428D02*
X188909476Y-112449428D01*
X189006238Y-112401047D01*
X189054619Y-112304285D01*
X189054619Y-112207523D01*
X189054619Y-111868857D02*
X188038619Y-111868857D01*
X189054619Y-111433428D02*
X188522428Y-111433428D01*
X188425666Y-111481809D01*
X188377285Y-111578571D01*
X188377285Y-111723714D01*
X188425666Y-111820476D01*
X188474047Y-111868857D01*
X188377285Y-110514190D02*
X189054619Y-110514190D01*
X188377285Y-110949619D02*
X188909476Y-110949619D01*
X189006238Y-110901238D01*
X189054619Y-110804476D01*
X189054619Y-110659333D01*
X189006238Y-110562571D01*
X188957857Y-110514190D01*
X189054619Y-110030380D02*
X188038619Y-110030380D01*
X188425666Y-110030380D02*
X188377285Y-109933619D01*
X188377285Y-109740095D01*
X188425666Y-109643333D01*
X188474047Y-109594952D01*
X188570809Y-109546571D01*
X188861095Y-109546571D01*
X188957857Y-109594952D01*
X189006238Y-109643333D01*
X189054619Y-109740095D01*
X189054619Y-109933619D01*
X189006238Y-110030380D01*
X188957857Y-109111142D02*
X189006238Y-109062761D01*
X189054619Y-109111142D01*
X189006238Y-109159523D01*
X188957857Y-109111142D01*
X189054619Y-109111142D01*
X189006238Y-108191904D02*
X189054619Y-108288666D01*
X189054619Y-108482190D01*
X189006238Y-108578952D01*
X188957857Y-108627333D01*
X188861095Y-108675714D01*
X188570809Y-108675714D01*
X188474047Y-108627333D01*
X188425666Y-108578952D01*
X188377285Y-108482190D01*
X188377285Y-108288666D01*
X188425666Y-108191904D01*
X189054619Y-107611333D02*
X189006238Y-107708095D01*
X188957857Y-107756476D01*
X188861095Y-107804857D01*
X188570809Y-107804857D01*
X188474047Y-107756476D01*
X188425666Y-107708095D01*
X188377285Y-107611333D01*
X188377285Y-107466190D01*
X188425666Y-107369428D01*
X188474047Y-107321047D01*
X188570809Y-107272666D01*
X188861095Y-107272666D01*
X188957857Y-107321047D01*
X189006238Y-107369428D01*
X189054619Y-107466190D01*
X189054619Y-107611333D01*
X189054619Y-106837238D02*
X188377285Y-106837238D01*
X188474047Y-106837238D02*
X188425666Y-106788857D01*
X188377285Y-106692095D01*
X188377285Y-106546952D01*
X188425666Y-106450190D01*
X188522428Y-106401809D01*
X189054619Y-106401809D01*
X188522428Y-106401809D02*
X188425666Y-106353428D01*
X188377285Y-106256666D01*
X188377285Y-106111523D01*
X188425666Y-106014761D01*
X188522428Y-105966380D01*
X189054619Y-105966380D01*
X187990238Y-104756857D02*
X189296523Y-105627714D01*
X188377285Y-104418190D02*
X189248142Y-104418190D01*
X189344904Y-104466571D01*
X189393285Y-104563333D01*
X189393285Y-104611714D01*
X188038619Y-104418190D02*
X188087000Y-104466571D01*
X188135380Y-104418190D01*
X188087000Y-104369809D01*
X188038619Y-104418190D01*
X188135380Y-104418190D01*
X189054619Y-103498952D02*
X188522428Y-103498952D01*
X188425666Y-103547333D01*
X188377285Y-103644095D01*
X188377285Y-103837619D01*
X188425666Y-103934380D01*
X189006238Y-103498952D02*
X189054619Y-103595714D01*
X189054619Y-103837619D01*
X189006238Y-103934380D01*
X188909476Y-103982761D01*
X188812714Y-103982761D01*
X188715952Y-103934380D01*
X188667571Y-103837619D01*
X188667571Y-103595714D01*
X188619190Y-103498952D01*
X188377285Y-103015142D02*
X189054619Y-103015142D01*
X188474047Y-103015142D02*
X188425666Y-102966761D01*
X188377285Y-102870000D01*
X188377285Y-102724857D01*
X188425666Y-102628095D01*
X188522428Y-102579714D01*
X189054619Y-102579714D01*
X189006238Y-101708857D02*
X189054619Y-101805619D01*
X189054619Y-101999142D01*
X189006238Y-102095904D01*
X188909476Y-102144285D01*
X188522428Y-102144285D01*
X188425666Y-102095904D01*
X188377285Y-101999142D01*
X188377285Y-101805619D01*
X188425666Y-101708857D01*
X188522428Y-101660476D01*
X188619190Y-101660476D01*
X188715952Y-102144285D01*
X189054619Y-101079904D02*
X189006238Y-101176666D01*
X188909476Y-101225047D01*
X188038619Y-101225047D01*
X189054619Y-100692857D02*
X188377285Y-100692857D01*
X188038619Y-100692857D02*
X188087000Y-100741238D01*
X188135380Y-100692857D01*
X188087000Y-100644476D01*
X188038619Y-100692857D01*
X188135380Y-100692857D01*
X189054619Y-99773619D02*
X188522428Y-99773619D01*
X188425666Y-99822000D01*
X188377285Y-99918761D01*
X188377285Y-100112285D01*
X188425666Y-100209047D01*
X189006238Y-99773619D02*
X189054619Y-99870380D01*
X189054619Y-100112285D01*
X189006238Y-100209047D01*
X188909476Y-100257428D01*
X188812714Y-100257428D01*
X188715952Y-100209047D01*
X188667571Y-100112285D01*
X188667571Y-99870380D01*
X188619190Y-99773619D01*
X188667571Y-99289809D02*
X188667571Y-98515714D01*
X189054619Y-98031904D02*
X188377285Y-98031904D01*
X188474047Y-98031904D02*
X188425666Y-97983523D01*
X188377285Y-97886761D01*
X188377285Y-97741619D01*
X188425666Y-97644857D01*
X188522428Y-97596476D01*
X189054619Y-97596476D01*
X188522428Y-97596476D02*
X188425666Y-97548095D01*
X188377285Y-97451333D01*
X188377285Y-97306190D01*
X188425666Y-97209428D01*
X188522428Y-97161047D01*
X189054619Y-97161047D01*
X189054619Y-96532095D02*
X189006238Y-96628857D01*
X188957857Y-96677238D01*
X188861095Y-96725619D01*
X188570809Y-96725619D01*
X188474047Y-96677238D01*
X188425666Y-96628857D01*
X188377285Y-96532095D01*
X188377285Y-96386952D01*
X188425666Y-96290190D01*
X188474047Y-96241809D01*
X188570809Y-96193428D01*
X188861095Y-96193428D01*
X188957857Y-96241809D01*
X189006238Y-96290190D01*
X189054619Y-96386952D01*
X189054619Y-96532095D01*
X189054619Y-95322571D02*
X188038619Y-95322571D01*
X189006238Y-95322571D02*
X189054619Y-95419333D01*
X189054619Y-95612857D01*
X189006238Y-95709619D01*
X188957857Y-95758000D01*
X188861095Y-95806380D01*
X188570809Y-95806380D01*
X188474047Y-95758000D01*
X188425666Y-95709619D01*
X188377285Y-95612857D01*
X188377285Y-95419333D01*
X188425666Y-95322571D01*
X188377285Y-94403333D02*
X189054619Y-94403333D01*
X188377285Y-94838761D02*
X188909476Y-94838761D01*
X189006238Y-94790380D01*
X189054619Y-94693619D01*
X189054619Y-94548476D01*
X189006238Y-94451714D01*
X188957857Y-94403333D01*
X189054619Y-93774380D02*
X189006238Y-93871142D01*
X188909476Y-93919523D01*
X188038619Y-93919523D01*
X189054619Y-92951904D02*
X188522428Y-92951904D01*
X188425666Y-93000285D01*
X188377285Y-93097047D01*
X188377285Y-93290571D01*
X188425666Y-93387333D01*
X189006238Y-92951904D02*
X189054619Y-93048666D01*
X189054619Y-93290571D01*
X189006238Y-93387333D01*
X188909476Y-93435714D01*
X188812714Y-93435714D01*
X188715952Y-93387333D01*
X188667571Y-93290571D01*
X188667571Y-93048666D01*
X188619190Y-92951904D01*
X189054619Y-92468095D02*
X188377285Y-92468095D01*
X188570809Y-92468095D02*
X188474047Y-92419714D01*
X188425666Y-92371333D01*
X188377285Y-92274571D01*
X188377285Y-92177809D01*
X188667571Y-91839142D02*
X188667571Y-91065047D01*
X189054619Y-90145809D02*
X188038619Y-90145809D01*
X189006238Y-90145809D02*
X189054619Y-90242571D01*
X189054619Y-90436095D01*
X189006238Y-90532857D01*
X188957857Y-90581238D01*
X188861095Y-90629619D01*
X188570809Y-90629619D01*
X188474047Y-90581238D01*
X188425666Y-90532857D01*
X188377285Y-90436095D01*
X188377285Y-90242571D01*
X188425666Y-90145809D01*
X189006238Y-89274952D02*
X189054619Y-89371714D01*
X189054619Y-89565238D01*
X189006238Y-89662000D01*
X188909476Y-89710380D01*
X188522428Y-89710380D01*
X188425666Y-89662000D01*
X188377285Y-89565238D01*
X188377285Y-89371714D01*
X188425666Y-89274952D01*
X188522428Y-89226571D01*
X188619190Y-89226571D01*
X188715952Y-89710380D01*
X188377285Y-88887904D02*
X189054619Y-88646000D01*
X188377285Y-88404095D01*
X189054619Y-88017047D02*
X188377285Y-88017047D01*
X188038619Y-88017047D02*
X188087000Y-88065428D01*
X188135380Y-88017047D01*
X188087000Y-87968666D01*
X188038619Y-88017047D01*
X188135380Y-88017047D01*
X189006238Y-87097809D02*
X189054619Y-87194571D01*
X189054619Y-87388095D01*
X189006238Y-87484857D01*
X188957857Y-87533238D01*
X188861095Y-87581619D01*
X188570809Y-87581619D01*
X188474047Y-87533238D01*
X188425666Y-87484857D01*
X188377285Y-87388095D01*
X188377285Y-87194571D01*
X188425666Y-87097809D01*
X189006238Y-86275333D02*
X189054619Y-86372095D01*
X189054619Y-86565619D01*
X189006238Y-86662380D01*
X188909476Y-86710761D01*
X188522428Y-86710761D01*
X188425666Y-86662380D01*
X188377285Y-86565619D01*
X188377285Y-86372095D01*
X188425666Y-86275333D01*
X188522428Y-86226952D01*
X188619190Y-86226952D01*
X188715952Y-86710761D01*
X189006238Y-85839904D02*
X189054619Y-85743142D01*
X189054619Y-85549619D01*
X189006238Y-85452857D01*
X188909476Y-85404476D01*
X188861095Y-85404476D01*
X188764333Y-85452857D01*
X188715952Y-85549619D01*
X188715952Y-85694761D01*
X188667571Y-85791523D01*
X188570809Y-85839904D01*
X188522428Y-85839904D01*
X188425666Y-85791523D01*
X188377285Y-85694761D01*
X188377285Y-85549619D01*
X188425666Y-85452857D01*
D11*
X94677290Y-121617619D02*
X94677290Y-122343333D01*
X94628909Y-122488476D01*
X94532147Y-122585238D01*
X94387004Y-122633619D01*
X94290242Y-122633619D01*
X95596528Y-122633619D02*
X95596528Y-122101428D01*
X95548147Y-122004666D01*
X95451385Y-121956285D01*
X95257861Y-121956285D01*
X95161100Y-122004666D01*
X95596528Y-122585238D02*
X95499766Y-122633619D01*
X95257861Y-122633619D01*
X95161100Y-122585238D01*
X95112719Y-122488476D01*
X95112719Y-122391714D01*
X95161100Y-122294952D01*
X95257861Y-122246571D01*
X95499766Y-122246571D01*
X95596528Y-122198190D01*
X96080338Y-121956285D02*
X96080338Y-122633619D01*
X96080338Y-122053047D02*
X96128719Y-122004666D01*
X96225480Y-121956285D01*
X96370623Y-121956285D01*
X96467385Y-122004666D01*
X96515766Y-122101428D01*
X96515766Y-122633619D01*
X97386623Y-122585238D02*
X97289861Y-122633619D01*
X97096338Y-122633619D01*
X96999576Y-122585238D01*
X96951195Y-122488476D01*
X96951195Y-122101428D01*
X96999576Y-122004666D01*
X97096338Y-121956285D01*
X97289861Y-121956285D01*
X97386623Y-122004666D01*
X97435004Y-122101428D01*
X97435004Y-122198190D01*
X96951195Y-122294952D01*
X98015576Y-122633619D02*
X97918814Y-122585238D01*
X97870433Y-122488476D01*
X97870433Y-121617619D01*
X98402623Y-122633619D02*
X98402623Y-121956285D01*
X98402623Y-121617619D02*
X98354242Y-121666000D01*
X98402623Y-121714380D01*
X98451004Y-121666000D01*
X98402623Y-121617619D01*
X98402623Y-121714380D01*
X99321861Y-122633619D02*
X99321861Y-122101428D01*
X99273480Y-122004666D01*
X99176719Y-121956285D01*
X98983195Y-121956285D01*
X98886433Y-122004666D01*
X99321861Y-122585238D02*
X99225100Y-122633619D01*
X98983195Y-122633619D01*
X98886433Y-122585238D01*
X98838052Y-122488476D01*
X98838052Y-122391714D01*
X98886433Y-122294952D01*
X98983195Y-122246571D01*
X99225100Y-122246571D01*
X99321861Y-122198190D01*
X100579766Y-122633619D02*
X100579766Y-121617619D01*
X100918433Y-122343333D01*
X101257100Y-121617619D01*
X101257100Y-122633619D01*
X101886052Y-122633619D02*
X101789290Y-122585238D01*
X101740909Y-122536857D01*
X101692528Y-122440095D01*
X101692528Y-122149809D01*
X101740909Y-122053047D01*
X101789290Y-122004666D01*
X101886052Y-121956285D01*
X102031195Y-121956285D01*
X102127957Y-122004666D01*
X102176338Y-122053047D01*
X102224719Y-122149809D01*
X102224719Y-122440095D01*
X102176338Y-122536857D01*
X102127957Y-122585238D01*
X102031195Y-122633619D01*
X101886052Y-122633619D01*
X103095576Y-122633619D02*
X103095576Y-121617619D01*
X103095576Y-122585238D02*
X102998814Y-122633619D01*
X102805290Y-122633619D01*
X102708528Y-122585238D01*
X102660147Y-122536857D01*
X102611766Y-122440095D01*
X102611766Y-122149809D01*
X102660147Y-122053047D01*
X102708528Y-122004666D01*
X102805290Y-121956285D01*
X102998814Y-121956285D01*
X103095576Y-122004666D01*
X104014814Y-121956285D02*
X104014814Y-122633619D01*
X103579385Y-121956285D02*
X103579385Y-122488476D01*
X103627766Y-122585238D01*
X103724528Y-122633619D01*
X103869671Y-122633619D01*
X103966433Y-122585238D01*
X104014814Y-122536857D01*
X104643766Y-122633619D02*
X104547004Y-122585238D01*
X104498623Y-122488476D01*
X104498623Y-121617619D01*
X105466242Y-122633619D02*
X105466242Y-122101428D01*
X105417861Y-122004666D01*
X105321100Y-121956285D01*
X105127576Y-121956285D01*
X105030814Y-122004666D01*
X105466242Y-122585238D02*
X105369480Y-122633619D01*
X105127576Y-122633619D01*
X105030814Y-122585238D01*
X104982433Y-122488476D01*
X104982433Y-122391714D01*
X105030814Y-122294952D01*
X105127576Y-122246571D01*
X105369480Y-122246571D01*
X105466242Y-122198190D01*
X105950052Y-122633619D02*
X105950052Y-121956285D01*
X105950052Y-122149809D02*
X105998433Y-122053047D01*
X106046814Y-122004666D01*
X106143576Y-121956285D01*
X106240338Y-121956285D01*
X107353100Y-122633619D02*
X107353100Y-121617619D01*
X107595004Y-121617619D01*
X107740147Y-121666000D01*
X107836909Y-121762761D01*
X107885290Y-121859523D01*
X107933671Y-122053047D01*
X107933671Y-122198190D01*
X107885290Y-122391714D01*
X107836909Y-122488476D01*
X107740147Y-122585238D01*
X107595004Y-122633619D01*
X107353100Y-122633619D01*
X108756147Y-122585238D02*
X108659385Y-122633619D01*
X108465861Y-122633619D01*
X108369100Y-122585238D01*
X108320719Y-122488476D01*
X108320719Y-122101428D01*
X108369100Y-122004666D01*
X108465861Y-121956285D01*
X108659385Y-121956285D01*
X108756147Y-122004666D01*
X108804528Y-122101428D01*
X108804528Y-122198190D01*
X108320719Y-122294952D01*
X109143195Y-121956285D02*
X109385100Y-122633619D01*
X109627004Y-121956285D01*
X110014052Y-122633619D02*
X110014052Y-121956285D01*
X110014052Y-121617619D02*
X109965671Y-121666000D01*
X110014052Y-121714380D01*
X110062433Y-121666000D01*
X110014052Y-121617619D01*
X110014052Y-121714380D01*
X110933290Y-122585238D02*
X110836528Y-122633619D01*
X110643004Y-122633619D01*
X110546242Y-122585238D01*
X110497861Y-122536857D01*
X110449480Y-122440095D01*
X110449480Y-122149809D01*
X110497861Y-122053047D01*
X110546242Y-122004666D01*
X110643004Y-121956285D01*
X110836528Y-121956285D01*
X110933290Y-122004666D01*
X111755766Y-122585238D02*
X111659004Y-122633619D01*
X111465480Y-122633619D01*
X111368719Y-122585238D01*
X111320338Y-122488476D01*
X111320338Y-122101428D01*
X111368719Y-122004666D01*
X111465480Y-121956285D01*
X111659004Y-121956285D01*
X111755766Y-122004666D01*
X111804147Y-122101428D01*
X111804147Y-122198190D01*
X111320338Y-122294952D01*
X94241861Y-123734285D02*
X94628909Y-123734285D01*
X94387004Y-123395619D02*
X94387004Y-124266476D01*
X94435385Y-124363238D01*
X94532147Y-124411619D01*
X94628909Y-124411619D01*
X95354623Y-124363238D02*
X95257861Y-124411619D01*
X95064338Y-124411619D01*
X94967576Y-124363238D01*
X94919195Y-124266476D01*
X94919195Y-123879428D01*
X94967576Y-123782666D01*
X95064338Y-123734285D01*
X95257861Y-123734285D01*
X95354623Y-123782666D01*
X95403004Y-123879428D01*
X95403004Y-123976190D01*
X94919195Y-124072952D01*
X95838433Y-124411619D02*
X95838433Y-123734285D01*
X95838433Y-123831047D02*
X95886814Y-123782666D01*
X95983576Y-123734285D01*
X96128719Y-123734285D01*
X96225480Y-123782666D01*
X96273861Y-123879428D01*
X96273861Y-124411619D01*
X96273861Y-123879428D02*
X96322242Y-123782666D01*
X96419004Y-123734285D01*
X96564147Y-123734285D01*
X96660909Y-123782666D01*
X96709290Y-123879428D01*
X96709290Y-124411619D01*
X97193100Y-123734285D02*
X97193100Y-124750285D01*
X97193100Y-123782666D02*
X97289861Y-123734285D01*
X97483385Y-123734285D01*
X97580147Y-123782666D01*
X97628528Y-123831047D01*
X97676909Y-123927809D01*
X97676909Y-124218095D01*
X97628528Y-124314857D01*
X97580147Y-124363238D01*
X97483385Y-124411619D01*
X97289861Y-124411619D01*
X97193100Y-124363238D01*
X98257480Y-124411619D02*
X98160719Y-124363238D01*
X98112338Y-124266476D01*
X98112338Y-123395619D01*
X99079957Y-124411619D02*
X99079957Y-123879428D01*
X99031576Y-123782666D01*
X98934814Y-123734285D01*
X98741290Y-123734285D01*
X98644528Y-123782666D01*
X99079957Y-124363238D02*
X98983195Y-124411619D01*
X98741290Y-124411619D01*
X98644528Y-124363238D01*
X98596147Y-124266476D01*
X98596147Y-124169714D01*
X98644528Y-124072952D01*
X98741290Y-124024571D01*
X98983195Y-124024571D01*
X99079957Y-123976190D01*
X99418623Y-123734285D02*
X99805671Y-123734285D01*
X99563766Y-123395619D02*
X99563766Y-124266476D01*
X99612147Y-124363238D01*
X99708909Y-124411619D01*
X99805671Y-124411619D01*
X100531385Y-124363238D02*
X100434623Y-124411619D01*
X100241100Y-124411619D01*
X100144338Y-124363238D01*
X100095957Y-124266476D01*
X100095957Y-123879428D01*
X100144338Y-123782666D01*
X100241100Y-123734285D01*
X100434623Y-123734285D01*
X100531385Y-123782666D01*
X100579766Y-123879428D01*
X100579766Y-123976190D01*
X100095957Y-124072952D01*
X94387004Y-125512285D02*
X94387004Y-126528285D01*
X94387004Y-125560666D02*
X94483766Y-125512285D01*
X94677290Y-125512285D01*
X94774052Y-125560666D01*
X94822433Y-125609047D01*
X94870814Y-125705809D01*
X94870814Y-125996095D01*
X94822433Y-126092857D01*
X94774052Y-126141238D01*
X94677290Y-126189619D01*
X94483766Y-126189619D01*
X94387004Y-126141238D01*
X95741671Y-126189619D02*
X95741671Y-125657428D01*
X95693290Y-125560666D01*
X95596528Y-125512285D01*
X95403004Y-125512285D01*
X95306242Y-125560666D01*
X95741671Y-126141238D02*
X95644909Y-126189619D01*
X95403004Y-126189619D01*
X95306242Y-126141238D01*
X95257861Y-126044476D01*
X95257861Y-125947714D01*
X95306242Y-125850952D01*
X95403004Y-125802571D01*
X95644909Y-125802571D01*
X95741671Y-125754190D01*
X96225480Y-126189619D02*
X96225480Y-125512285D01*
X96225480Y-125705809D02*
X96273861Y-125609047D01*
X96322242Y-125560666D01*
X96419004Y-125512285D01*
X96515766Y-125512285D01*
X96709290Y-125512285D02*
X97096338Y-125512285D01*
X96854433Y-125173619D02*
X96854433Y-126044476D01*
X96902814Y-126141238D01*
X96999576Y-126189619D01*
X97096338Y-126189619D01*
X97193100Y-126286380D02*
X97967195Y-126286380D01*
X98209100Y-125512285D02*
X98209100Y-126189619D01*
X98209100Y-125609047D02*
X98257480Y-125560666D01*
X98354242Y-125512285D01*
X98499385Y-125512285D01*
X98596147Y-125560666D01*
X98644528Y-125657428D01*
X98644528Y-126189619D01*
X99563766Y-125512285D02*
X99563766Y-126189619D01*
X99128338Y-125512285D02*
X99128338Y-126044476D01*
X99176719Y-126141238D01*
X99273480Y-126189619D01*
X99418623Y-126189619D01*
X99515385Y-126141238D01*
X99563766Y-126092857D01*
X100047576Y-126189619D02*
X100047576Y-125512285D01*
X100047576Y-125609047D02*
X100095957Y-125560666D01*
X100192719Y-125512285D01*
X100337861Y-125512285D01*
X100434623Y-125560666D01*
X100483004Y-125657428D01*
X100483004Y-126189619D01*
X100483004Y-125657428D02*
X100531385Y-125560666D01*
X100628147Y-125512285D01*
X100773290Y-125512285D01*
X100870052Y-125560666D01*
X100918433Y-125657428D01*
X100918433Y-126189619D01*
X101402242Y-126189619D02*
X101402242Y-125173619D01*
X101402242Y-125560666D02*
X101499004Y-125512285D01*
X101692528Y-125512285D01*
X101789290Y-125560666D01*
X101837671Y-125609047D01*
X101886052Y-125705809D01*
X101886052Y-125996095D01*
X101837671Y-126092857D01*
X101789290Y-126141238D01*
X101692528Y-126189619D01*
X101499004Y-126189619D01*
X101402242Y-126141238D01*
X102708528Y-126141238D02*
X102611766Y-126189619D01*
X102418242Y-126189619D01*
X102321480Y-126141238D01*
X102273100Y-126044476D01*
X102273100Y-125657428D01*
X102321480Y-125560666D01*
X102418242Y-125512285D01*
X102611766Y-125512285D01*
X102708528Y-125560666D01*
X102756909Y-125657428D01*
X102756909Y-125754190D01*
X102273100Y-125850952D01*
X103192338Y-126189619D02*
X103192338Y-125512285D01*
X103192338Y-125705809D02*
X103240719Y-125609047D01*
X103289100Y-125560666D01*
X103385861Y-125512285D01*
X103482623Y-125512285D01*
X103821290Y-126092857D02*
X103869671Y-126141238D01*
X103821290Y-126189619D01*
X103772909Y-126141238D01*
X103821290Y-126092857D01*
X103821290Y-126189619D01*
X103821290Y-125560666D02*
X103869671Y-125609047D01*
X103821290Y-125657428D01*
X103772909Y-125609047D01*
X103821290Y-125560666D01*
X103821290Y-125657428D01*
X105611385Y-126189619D02*
X105030814Y-126189619D01*
X105321100Y-126189619D02*
X105321100Y-125173619D01*
X105224338Y-125318761D01*
X105127576Y-125415523D01*
X105030814Y-125463904D01*
X106240338Y-125173619D02*
X106337100Y-125173619D01*
X106433861Y-125222000D01*
X106482242Y-125270380D01*
X106530623Y-125367142D01*
X106579004Y-125560666D01*
X106579004Y-125802571D01*
X106530623Y-125996095D01*
X106482242Y-126092857D01*
X106433861Y-126141238D01*
X106337100Y-126189619D01*
X106240338Y-126189619D01*
X106143576Y-126141238D01*
X106095195Y-126092857D01*
X106046814Y-125996095D01*
X105998433Y-125802571D01*
X105998433Y-125560666D01*
X106046814Y-125367142D01*
X106095195Y-125270380D01*
X106143576Y-125222000D01*
X106240338Y-125173619D01*
X107207957Y-125173619D02*
X107304719Y-125173619D01*
X107401480Y-125222000D01*
X107449861Y-125270380D01*
X107498242Y-125367142D01*
X107546623Y-125560666D01*
X107546623Y-125802571D01*
X107498242Y-125996095D01*
X107449861Y-126092857D01*
X107401480Y-126141238D01*
X107304719Y-126189619D01*
X107207957Y-126189619D01*
X107111195Y-126141238D01*
X107062814Y-126092857D01*
X107014433Y-125996095D01*
X106966052Y-125802571D01*
X106966052Y-125560666D01*
X107014433Y-125367142D01*
X107062814Y-125270380D01*
X107111195Y-125222000D01*
X107207957Y-125173619D01*
X108175576Y-125173619D02*
X108272338Y-125173619D01*
X108369100Y-125222000D01*
X108417480Y-125270380D01*
X108465861Y-125367142D01*
X108514242Y-125560666D01*
X108514242Y-125802571D01*
X108465861Y-125996095D01*
X108417480Y-126092857D01*
X108369100Y-126141238D01*
X108272338Y-126189619D01*
X108175576Y-126189619D01*
X108078814Y-126141238D01*
X108030433Y-126092857D01*
X107982052Y-125996095D01*
X107933671Y-125802571D01*
X107933671Y-125560666D01*
X107982052Y-125367142D01*
X108030433Y-125270380D01*
X108078814Y-125222000D01*
X108175576Y-125173619D01*
X94580528Y-126951619D02*
X94677290Y-126951619D01*
X94774052Y-127000000D01*
X94822433Y-127048380D01*
X94870814Y-127145142D01*
X94919195Y-127338666D01*
X94919195Y-127580571D01*
X94870814Y-127774095D01*
X94822433Y-127870857D01*
X94774052Y-127919238D01*
X94677290Y-127967619D01*
X94580528Y-127967619D01*
X94483766Y-127919238D01*
X94435385Y-127870857D01*
X94387004Y-127774095D01*
X94338623Y-127580571D01*
X94338623Y-127338666D01*
X94387004Y-127145142D01*
X94435385Y-127048380D01*
X94483766Y-127000000D01*
X94580528Y-126951619D01*
X95306242Y-127048380D02*
X95354623Y-127000000D01*
X95451385Y-126951619D01*
X95693290Y-126951619D01*
X95790052Y-127000000D01*
X95838433Y-127048380D01*
X95886814Y-127145142D01*
X95886814Y-127241904D01*
X95838433Y-127387047D01*
X95257861Y-127967619D01*
X95886814Y-127967619D01*
X97047957Y-126903238D02*
X96177100Y-128209523D01*
X97338242Y-127048380D02*
X97386623Y-127000000D01*
X97483385Y-126951619D01*
X97725290Y-126951619D01*
X97822052Y-127000000D01*
X97870433Y-127048380D01*
X97918814Y-127145142D01*
X97918814Y-127241904D01*
X97870433Y-127387047D01*
X97289861Y-127967619D01*
X97918814Y-127967619D01*
X98547766Y-126951619D02*
X98644528Y-126951619D01*
X98741290Y-127000000D01*
X98789671Y-127048380D01*
X98838052Y-127145142D01*
X98886433Y-127338666D01*
X98886433Y-127580571D01*
X98838052Y-127774095D01*
X98789671Y-127870857D01*
X98741290Y-127919238D01*
X98644528Y-127967619D01*
X98547766Y-127967619D01*
X98451004Y-127919238D01*
X98402623Y-127870857D01*
X98354242Y-127774095D01*
X98305861Y-127580571D01*
X98305861Y-127338666D01*
X98354242Y-127145142D01*
X98402623Y-127048380D01*
X98451004Y-127000000D01*
X98547766Y-126951619D01*
X99854052Y-127967619D02*
X99273480Y-127967619D01*
X99563766Y-127967619D02*
X99563766Y-126951619D01*
X99467004Y-127096761D01*
X99370242Y-127193523D01*
X99273480Y-127241904D01*
X100192719Y-126951619D02*
X100870052Y-126951619D01*
X100434623Y-127967619D01*
X101934433Y-127290285D02*
X102176338Y-127967619D01*
X102418242Y-127290285D01*
X103192338Y-127919238D02*
X103095576Y-127967619D01*
X102902052Y-127967619D01*
X102805290Y-127919238D01*
X102756909Y-127822476D01*
X102756909Y-127435428D01*
X102805290Y-127338666D01*
X102902052Y-127290285D01*
X103095576Y-127290285D01*
X103192338Y-127338666D01*
X103240719Y-127435428D01*
X103240719Y-127532190D01*
X102756909Y-127628952D01*
X103676147Y-127967619D02*
X103676147Y-127290285D01*
X103676147Y-127483809D02*
X103724528Y-127387047D01*
X103772909Y-127338666D01*
X103869671Y-127290285D01*
X103966433Y-127290285D01*
X105611385Y-127967619D02*
X105030814Y-127967619D01*
X105321100Y-127967619D02*
X105321100Y-126951619D01*
X105224338Y-127096761D01*
X105127576Y-127193523D01*
X105030814Y-127241904D01*
X106046814Y-127870857D02*
X106095195Y-127919238D01*
X106046814Y-127967619D01*
X105998433Y-127919238D01*
X106046814Y-127870857D01*
X106046814Y-127967619D01*
X106724147Y-126951619D02*
X106820909Y-126951619D01*
X106917671Y-127000000D01*
X106966052Y-127048380D01*
X107014433Y-127145142D01*
X107062814Y-127338666D01*
X107062814Y-127580571D01*
X107014433Y-127774095D01*
X106966052Y-127870857D01*
X106917671Y-127919238D01*
X106820909Y-127967619D01*
X106724147Y-127967619D01*
X106627385Y-127919238D01*
X106579004Y-127870857D01*
X106530623Y-127774095D01*
X106482242Y-127580571D01*
X106482242Y-127338666D01*
X106530623Y-127145142D01*
X106579004Y-127048380D01*
X106627385Y-127000000D01*
X106724147Y-126951619D01*
X94870814Y-128729619D02*
X94387004Y-128729619D01*
X94338623Y-129213428D01*
X94387004Y-129165047D01*
X94483766Y-129116666D01*
X94725671Y-129116666D01*
X94822433Y-129165047D01*
X94870814Y-129213428D01*
X94919195Y-129310190D01*
X94919195Y-129552095D01*
X94870814Y-129648857D01*
X94822433Y-129697238D01*
X94725671Y-129745619D01*
X94483766Y-129745619D01*
X94387004Y-129697238D01*
X94338623Y-129648857D01*
X95257861Y-129745619D02*
X95790052Y-129068285D01*
X95257861Y-129068285D02*
X95790052Y-129745619D01*
X96080338Y-128729619D02*
X96709290Y-128729619D01*
X96370623Y-129116666D01*
X96515766Y-129116666D01*
X96612528Y-129165047D01*
X96660909Y-129213428D01*
X96709290Y-129310190D01*
X96709290Y-129552095D01*
X96660909Y-129648857D01*
X96612528Y-129697238D01*
X96515766Y-129745619D01*
X96225480Y-129745619D01*
X96128719Y-129697238D01*
X96080338Y-129648857D01*
D12*
X97790000Y-111125000D02*
X97790000Y-119380000D01*
X97790000Y-119380000D02*
X109220000Y-119380000D01*
X109220000Y-119380000D02*
X109220000Y-111125000D01*
X109220000Y-111125000D02*
X97790000Y-111125000D01*
X198120000Y-97790000D02*
X198120000Y-107950000D01*
X198120000Y-107950000D02*
X211455000Y-107950000D01*
X198120000Y-97790000D02*
X211455000Y-97790000D01*
X211455000Y-97790000D02*
X211455000Y-107950000D01*
X105410000Y-100330000D02*
X104648000Y-99568000D01*
X106680000Y-104140000D02*
X105156000Y-105156000D01*
X93345000Y-109220000D02*
X92710000Y-109220000D01*
X92710000Y-109220000D02*
X92710000Y-96520000D01*
X92710000Y-96520000D02*
X93345000Y-96520000D01*
X93345000Y-110490000D02*
X109220000Y-110490000D01*
X109220000Y-110490000D02*
X109220000Y-95250000D01*
X109220000Y-95250000D02*
X93345000Y-95250000D01*
X93345000Y-95250000D02*
X93345000Y-110490000D01*
X107315000Y-98552000D02*
X103505000Y-102362000D01*
X106680000Y-102870000D02*
X106680000Y-105410000D01*
X196215000Y-96520000D02*
X196215000Y-91440000D01*
X196215000Y-91440000D02*
X206375000Y-91440000D01*
X206375000Y-91440000D02*
X206375000Y-96520000D01*
X206375000Y-96520000D02*
X196215000Y-96520000D01*
X87884000Y-91567000D02*
X87884000Y-78867000D01*
X87884000Y-78867000D02*
X101854000Y-78867000D01*
X87884000Y-91567000D02*
X101854000Y-91567000D01*
X101854000Y-91567000D02*
X101854000Y-78867000D01*
X217170000Y-78740000D02*
X217170000Y-91440000D01*
X217170000Y-91440000D02*
X203200000Y-91440000D01*
X217170000Y-78740000D02*
X203200000Y-78740000D01*
X203200000Y-78740000D02*
X203200000Y-91440000D01*
X208915000Y-135890000D02*
X198755000Y-135890000D01*
X198755000Y-135890000D02*
X198755000Y-121920000D01*
X208915000Y-135890000D02*
X208915000Y-121920000D01*
X208915000Y-121920000D02*
X198755000Y-121920000D01*
D14*
X199517000Y-109728000D02*
X199517000Y-108712000D01*
X200025000Y-109220000D02*
X199009000Y-109220000D01*
X196215000Y-110490000D02*
X196215000Y-107950000D01*
X196215000Y-107950000D02*
X203835000Y-107950000D01*
X203835000Y-107950000D02*
X203835000Y-110490000D01*
X203835000Y-110490000D02*
X196215000Y-110490000D01*
X198180000Y-115965000D02*
X198180000Y-111365000D01*
X198180000Y-111365000D02*
X205680000Y-111365000D01*
X205680000Y-111365000D02*
X205680000Y-115965000D01*
X205680000Y-115965000D02*
X198180000Y-115965000D01*
D11*
X96979619Y-116071952D02*
X96495809Y-116410619D01*
X96979619Y-116652523D02*
X95963619Y-116652523D01*
X95963619Y-116265476D01*
X96012000Y-116168714D01*
X96060380Y-116120333D01*
X96157142Y-116071952D01*
X96302285Y-116071952D01*
X96399047Y-116120333D01*
X96447428Y-116168714D01*
X96495809Y-116265476D01*
X96495809Y-116652523D01*
X96447428Y-115636523D02*
X96447428Y-115297857D01*
X96979619Y-115152714D02*
X96979619Y-115636523D01*
X95963619Y-115636523D01*
X95963619Y-115152714D01*
X96012000Y-114185095D02*
X95963619Y-114281857D01*
X95963619Y-114427000D01*
X96012000Y-114572142D01*
X96108761Y-114668904D01*
X96205523Y-114717285D01*
X96399047Y-114765666D01*
X96544190Y-114765666D01*
X96737714Y-114717285D01*
X96834476Y-114668904D01*
X96931238Y-114572142D01*
X96979619Y-114427000D01*
X96979619Y-114330238D01*
X96931238Y-114185095D01*
X96882857Y-114136714D01*
X96544190Y-114136714D01*
X96544190Y-114330238D01*
X96979619Y-113169095D02*
X96979619Y-113749666D01*
X96979619Y-113459380D02*
X95963619Y-113459380D01*
X96108761Y-113556142D01*
X96205523Y-113652904D01*
X96253904Y-113749666D01*
X209435095Y-96979619D02*
X209435095Y-95963619D01*
X209822142Y-95963619D01*
X209918904Y-96012000D01*
X209967285Y-96060380D01*
X210015666Y-96157142D01*
X210015666Y-96302285D01*
X209967285Y-96399047D01*
X209918904Y-96447428D01*
X209822142Y-96495809D01*
X209435095Y-96495809D01*
X210983285Y-96979619D02*
X210402714Y-96979619D01*
X210693000Y-96979619D02*
X210693000Y-95963619D01*
X210596238Y-96108761D01*
X210499476Y-96205523D01*
X210402714Y-96253904D01*
X93738095Y-111965619D02*
X93738095Y-110949619D01*
X94125142Y-110949619D01*
X94221904Y-110998000D01*
X94270285Y-111046380D01*
X94318666Y-111143142D01*
X94318666Y-111288285D01*
X94270285Y-111385047D01*
X94221904Y-111433428D01*
X94125142Y-111481809D01*
X93738095Y-111481809D01*
X94657333Y-110949619D02*
X95334666Y-110949619D01*
X94899238Y-111965619D01*
X111203619Y-107151714D02*
X111203619Y-106571142D01*
X112219619Y-106861428D02*
X111203619Y-106861428D01*
X112219619Y-106087333D02*
X112171238Y-106184095D01*
X112122857Y-106232476D01*
X112026095Y-106280857D01*
X111735809Y-106280857D01*
X111639047Y-106232476D01*
X111590666Y-106184095D01*
X111542285Y-106087333D01*
X111542285Y-105942190D01*
X111590666Y-105845428D01*
X111639047Y-105797047D01*
X111735809Y-105748666D01*
X112026095Y-105748666D01*
X112122857Y-105797047D01*
X112171238Y-105845428D01*
X112219619Y-105942190D01*
X112219619Y-106087333D01*
X111542285Y-105313238D02*
X112558285Y-105313238D01*
X111590666Y-105313238D02*
X111542285Y-105216476D01*
X111542285Y-105022952D01*
X111590666Y-104926190D01*
X111639047Y-104877809D01*
X111735809Y-104829428D01*
X112026095Y-104829428D01*
X112122857Y-104877809D01*
X112171238Y-104926190D01*
X112219619Y-105022952D01*
X112219619Y-105216476D01*
X112171238Y-105313238D01*
X112122857Y-104394000D02*
X112171238Y-104345619D01*
X112219619Y-104394000D01*
X112171238Y-104442380D01*
X112122857Y-104394000D01*
X112219619Y-104394000D01*
X111590666Y-104394000D02*
X111639047Y-104345619D01*
X111687428Y-104394000D01*
X111639047Y-104442380D01*
X111590666Y-104394000D01*
X111687428Y-104394000D01*
X111687428Y-102797428D02*
X111735809Y-102652285D01*
X111784190Y-102603904D01*
X111880952Y-102555523D01*
X112026095Y-102555523D01*
X112122857Y-102603904D01*
X112171238Y-102652285D01*
X112219619Y-102749047D01*
X112219619Y-103136095D01*
X111203619Y-103136095D01*
X111203619Y-102797428D01*
X111252000Y-102700666D01*
X111300380Y-102652285D01*
X111397142Y-102603904D01*
X111493904Y-102603904D01*
X111590666Y-102652285D01*
X111639047Y-102700666D01*
X111687428Y-102797428D01*
X111687428Y-103136095D01*
X112219619Y-102120095D02*
X111203619Y-102120095D01*
X112219619Y-101539523D01*
X111203619Y-101539523D01*
X112122857Y-100475142D02*
X112171238Y-100523523D01*
X112219619Y-100668666D01*
X112219619Y-100765428D01*
X112171238Y-100910571D01*
X112074476Y-101007333D01*
X111977714Y-101055714D01*
X111784190Y-101104095D01*
X111639047Y-101104095D01*
X111445523Y-101055714D01*
X111348761Y-101007333D01*
X111252000Y-100910571D01*
X111203619Y-100765428D01*
X111203619Y-100668666D01*
X111252000Y-100523523D01*
X111300380Y-100475142D01*
X111687428Y-98926952D02*
X111735809Y-98781809D01*
X111784190Y-98733428D01*
X111880952Y-98685047D01*
X112026095Y-98685047D01*
X112122857Y-98733428D01*
X112171238Y-98781809D01*
X112219619Y-98878571D01*
X112219619Y-99265619D01*
X111203619Y-99265619D01*
X111203619Y-98926952D01*
X111252000Y-98830190D01*
X111300380Y-98781809D01*
X111397142Y-98733428D01*
X111493904Y-98733428D01*
X111590666Y-98781809D01*
X111639047Y-98830190D01*
X111687428Y-98926952D01*
X111687428Y-99265619D01*
X110163428Y-107974190D02*
X110211809Y-107829047D01*
X110260190Y-107780666D01*
X110356952Y-107732285D01*
X110502095Y-107732285D01*
X110598857Y-107780666D01*
X110647238Y-107829047D01*
X110695619Y-107925809D01*
X110695619Y-108312857D01*
X109679619Y-108312857D01*
X109679619Y-107974190D01*
X109728000Y-107877428D01*
X109776380Y-107829047D01*
X109873142Y-107780666D01*
X109969904Y-107780666D01*
X110066666Y-107829047D01*
X110115047Y-107877428D01*
X110163428Y-107974190D01*
X110163428Y-108312857D01*
X110695619Y-107151714D02*
X110647238Y-107248476D01*
X110598857Y-107296857D01*
X110502095Y-107345238D01*
X110211809Y-107345238D01*
X110115047Y-107296857D01*
X110066666Y-107248476D01*
X110018285Y-107151714D01*
X110018285Y-107006571D01*
X110066666Y-106909809D01*
X110115047Y-106861428D01*
X110211809Y-106813047D01*
X110502095Y-106813047D01*
X110598857Y-106861428D01*
X110647238Y-106909809D01*
X110695619Y-107006571D01*
X110695619Y-107151714D01*
X110018285Y-106522761D02*
X110018285Y-106135714D01*
X109679619Y-106377619D02*
X110550476Y-106377619D01*
X110647238Y-106329238D01*
X110695619Y-106232476D01*
X110695619Y-106135714D01*
X110018285Y-105942190D02*
X110018285Y-105555142D01*
X109679619Y-105797047D02*
X110550476Y-105797047D01*
X110647238Y-105748666D01*
X110695619Y-105651904D01*
X110695619Y-105555142D01*
X110695619Y-105071333D02*
X110647238Y-105168095D01*
X110598857Y-105216476D01*
X110502095Y-105264857D01*
X110211809Y-105264857D01*
X110115047Y-105216476D01*
X110066666Y-105168095D01*
X110018285Y-105071333D01*
X110018285Y-104926190D01*
X110066666Y-104829428D01*
X110115047Y-104781047D01*
X110211809Y-104732666D01*
X110502095Y-104732666D01*
X110598857Y-104781047D01*
X110647238Y-104829428D01*
X110695619Y-104926190D01*
X110695619Y-105071333D01*
X110695619Y-104297238D02*
X110018285Y-104297238D01*
X110115047Y-104297238D02*
X110066666Y-104248857D01*
X110018285Y-104152095D01*
X110018285Y-104006952D01*
X110066666Y-103910190D01*
X110163428Y-103861809D01*
X110695619Y-103861809D01*
X110163428Y-103861809D02*
X110066666Y-103813428D01*
X110018285Y-103716666D01*
X110018285Y-103571523D01*
X110066666Y-103474761D01*
X110163428Y-103426380D01*
X110695619Y-103426380D01*
X110598857Y-102942571D02*
X110647238Y-102894190D01*
X110695619Y-102942571D01*
X110647238Y-102990952D01*
X110598857Y-102942571D01*
X110695619Y-102942571D01*
X110066666Y-102942571D02*
X110115047Y-102894190D01*
X110163428Y-102942571D01*
X110115047Y-102990952D01*
X110066666Y-102942571D01*
X110163428Y-102942571D01*
X110163428Y-101346000D02*
X110211809Y-101200857D01*
X110260190Y-101152476D01*
X110356952Y-101104095D01*
X110502095Y-101104095D01*
X110598857Y-101152476D01*
X110647238Y-101200857D01*
X110695619Y-101297619D01*
X110695619Y-101684666D01*
X109679619Y-101684666D01*
X109679619Y-101346000D01*
X109728000Y-101249238D01*
X109776380Y-101200857D01*
X109873142Y-101152476D01*
X109969904Y-101152476D01*
X110066666Y-101200857D01*
X110115047Y-101249238D01*
X110163428Y-101346000D01*
X110163428Y-101684666D01*
X110695619Y-100668666D02*
X109679619Y-100668666D01*
X110695619Y-100088095D01*
X109679619Y-100088095D01*
X110598857Y-99023714D02*
X110647238Y-99072095D01*
X110695619Y-99217238D01*
X110695619Y-99314000D01*
X110647238Y-99459142D01*
X110550476Y-99555904D01*
X110453714Y-99604285D01*
X110260190Y-99652666D01*
X110115047Y-99652666D01*
X109921523Y-99604285D01*
X109824761Y-99555904D01*
X109728000Y-99459142D01*
X109679619Y-99314000D01*
X109679619Y-99217238D01*
X109728000Y-99072095D01*
X109776380Y-99023714D01*
X110405333Y-97862571D02*
X110405333Y-97378761D01*
X110695619Y-97959333D02*
X109679619Y-97620666D01*
X110695619Y-97282000D01*
X104321428Y-98733428D02*
X104369809Y-98588285D01*
X104418190Y-98539904D01*
X104514952Y-98491523D01*
X104660095Y-98491523D01*
X104756857Y-98539904D01*
X104805238Y-98588285D01*
X104853619Y-98685047D01*
X104853619Y-99072095D01*
X103837619Y-99072095D01*
X103837619Y-98733428D01*
X103886000Y-98636666D01*
X103934380Y-98588285D01*
X104031142Y-98539904D01*
X104127904Y-98539904D01*
X104224666Y-98588285D01*
X104273047Y-98636666D01*
X104321428Y-98733428D01*
X104321428Y-99072095D01*
X103583619Y-105700285D02*
X103583619Y-105119714D01*
X104599619Y-105410000D02*
X103583619Y-105410000D01*
D13*
X196469000Y-97463428D02*
X196577857Y-97499714D01*
X196759285Y-97499714D01*
X196831857Y-97463428D01*
X196868142Y-97427142D01*
X196904428Y-97354571D01*
X196904428Y-97282000D01*
X196868142Y-97209428D01*
X196831857Y-97173142D01*
X196759285Y-97136857D01*
X196614142Y-97100571D01*
X196541571Y-97064285D01*
X196505285Y-97028000D01*
X196469000Y-96955428D01*
X196469000Y-96882857D01*
X196505285Y-96810285D01*
X196541571Y-96774000D01*
X196614142Y-96737714D01*
X196795571Y-96737714D01*
X196904428Y-96774000D01*
X197158428Y-96737714D02*
X197339857Y-97499714D01*
X197485000Y-96955428D01*
X197630142Y-97499714D01*
X197811571Y-96737714D01*
X198501000Y-97499714D02*
X198065571Y-97499714D01*
X198283285Y-97499714D02*
X198283285Y-96737714D01*
X198210714Y-96846571D01*
X198138142Y-96919142D01*
X198065571Y-96955428D01*
D11*
X206834619Y-94947619D02*
X206834619Y-94754095D01*
X206883000Y-94657333D01*
X206979761Y-94560571D01*
X207173285Y-94512190D01*
X207511952Y-94512190D01*
X207705476Y-94560571D01*
X207802238Y-94657333D01*
X207850619Y-94754095D01*
X207850619Y-94947619D01*
X207802238Y-95044380D01*
X207705476Y-95141142D01*
X207511952Y-95189523D01*
X207173285Y-95189523D01*
X206979761Y-95141142D01*
X206883000Y-95044380D01*
X206834619Y-94947619D01*
X207318428Y-93738095D02*
X207318428Y-94076761D01*
X207850619Y-94076761D02*
X206834619Y-94076761D01*
X206834619Y-93592952D01*
X207318428Y-92867238D02*
X207318428Y-93205904D01*
X207850619Y-93205904D02*
X206834619Y-93205904D01*
X206834619Y-92722095D01*
X103583619Y-91681904D02*
X102567619Y-91681904D01*
X102567619Y-91294857D01*
X102616000Y-91198095D01*
X102664380Y-91149714D01*
X102761142Y-91101333D01*
X102906285Y-91101333D01*
X103003047Y-91149714D01*
X103051428Y-91198095D01*
X103099809Y-91294857D01*
X103099809Y-91681904D01*
X102664380Y-90714285D02*
X102616000Y-90665904D01*
X102567619Y-90569142D01*
X102567619Y-90327238D01*
X102616000Y-90230476D01*
X102664380Y-90182095D01*
X102761142Y-90133714D01*
X102857904Y-90133714D01*
X103003047Y-90182095D01*
X103583619Y-90762666D01*
X103583619Y-90133714D01*
X202389619Y-80124904D02*
X201373619Y-80124904D01*
X201373619Y-79737857D01*
X201422000Y-79641095D01*
X201470380Y-79592714D01*
X201567142Y-79544333D01*
X201712285Y-79544333D01*
X201809047Y-79592714D01*
X201857428Y-79641095D01*
X201905809Y-79737857D01*
X201905809Y-80124904D01*
X201712285Y-78673476D02*
X202389619Y-78673476D01*
X201325238Y-78915380D02*
X202050952Y-79157285D01*
X202050952Y-78528333D01*
X208800095Y-121109619D02*
X208800095Y-120093619D01*
X209187142Y-120093619D01*
X209283904Y-120142000D01*
X209332285Y-120190380D01*
X209380666Y-120287142D01*
X209380666Y-120432285D01*
X209332285Y-120529047D01*
X209283904Y-120577428D01*
X209187142Y-120625809D01*
X208800095Y-120625809D01*
X210251523Y-120093619D02*
X210058000Y-120093619D01*
X209961238Y-120142000D01*
X209912857Y-120190380D01*
X209816095Y-120335523D01*
X209767714Y-120529047D01*
X209767714Y-120916095D01*
X209816095Y-121012857D01*
X209864476Y-121061238D01*
X209961238Y-121109619D01*
X210154761Y-121109619D01*
X210251523Y-121061238D01*
X210299904Y-121012857D01*
X210348285Y-120916095D01*
X210348285Y-120674190D01*
X210299904Y-120577428D01*
X210251523Y-120529047D01*
X210154761Y-120480666D01*
X209961238Y-120480666D01*
X209864476Y-120529047D01*
X209816095Y-120577428D01*
X209767714Y-120674190D01*
D13*
X196723000Y-111469714D02*
X196360142Y-111469714D01*
X196360142Y-110707714D01*
X197376142Y-111469714D02*
X196940714Y-111469714D01*
X197158428Y-111469714D02*
X197158428Y-110707714D01*
X197085857Y-110816571D01*
X197013285Y-110889142D01*
X196940714Y-110925428D01*
D11*
X206989619Y-114414904D02*
X205973619Y-114414904D01*
X205973619Y-114173000D01*
X206022000Y-114027857D01*
X206118761Y-113931095D01*
X206215523Y-113882714D01*
X206409047Y-113834333D01*
X206554190Y-113834333D01*
X206747714Y-113882714D01*
X206844476Y-113931095D01*
X206941238Y-114027857D01*
X206989619Y-114173000D01*
X206989619Y-114414904D01*
X206989619Y-112866714D02*
X206989619Y-113447285D01*
X206989619Y-113157000D02*
X205973619Y-113157000D01*
X206118761Y-113253761D01*
X206215523Y-113350523D01*
X206263904Y-113447285D01*
%LPC*%
D15*
X111760000Y-127000000D03*
X113030000Y-78740000D03*
X194310000Y-127000000D03*
X187960000Y-78740000D03*
D16*
X125730000Y-127000000D03*
X128270000Y-127000000D03*
X130810000Y-127000000D03*
X133350000Y-127000000D03*
X135890000Y-127000000D03*
X138430000Y-127000000D03*
X140970000Y-127000000D03*
X143510000Y-127000000D03*
X148590000Y-127000000D03*
X151130000Y-127000000D03*
X153670000Y-127000000D03*
X156210000Y-127000000D03*
X158750000Y-127000000D03*
X161290000Y-127000000D03*
X163830000Y-127000000D03*
X166370000Y-127000000D03*
X171450000Y-127000000D03*
X173990000Y-127000000D03*
X176530000Y-127000000D03*
X179070000Y-127000000D03*
X181610000Y-127000000D03*
X184150000Y-127000000D03*
X186690000Y-127000000D03*
X189230000Y-127000000D03*
X116586000Y-78740000D03*
X119126000Y-78740000D03*
X121666000Y-78740000D03*
X124206000Y-78740000D03*
X126746000Y-78740000D03*
X129286000Y-78740000D03*
X131826000Y-78740000D03*
X134366000Y-78740000D03*
X136906000Y-78740000D03*
X139446000Y-78740000D03*
X143510000Y-78740000D03*
X161290000Y-78740000D03*
X158750000Y-78740000D03*
X156210000Y-78740000D03*
X153670000Y-78740000D03*
X151130000Y-78740000D03*
X148590000Y-78740000D03*
X146050000Y-78740000D03*
X166370000Y-78740000D03*
X168910000Y-78740000D03*
X171450000Y-78740000D03*
X173990000Y-78740000D03*
X176530000Y-78740000D03*
X179070000Y-78740000D03*
X181610000Y-78740000D03*
X184150000Y-78740000D03*
X191770000Y-78232000D03*
X194310000Y-78232000D03*
D17*
X191262000Y-81280000D03*
X194818000Y-81280000D03*
X191262000Y-83820000D03*
X194818000Y-83820000D03*
X191262000Y-86360000D03*
X194818000Y-86360000D03*
X191262000Y-88900000D03*
X194818000Y-88900000D03*
X191262000Y-91440000D03*
X194818000Y-91440000D03*
X191262000Y-93980000D03*
X194818000Y-93980000D03*
X191262000Y-96520000D03*
X194818000Y-96520000D03*
X191262000Y-99060000D03*
X194818000Y-99060000D03*
X191262000Y-101600000D03*
X194818000Y-101600000D03*
X191262000Y-104140000D03*
X194818000Y-104140000D03*
X191262000Y-106680000D03*
X194818000Y-106680000D03*
X191262000Y-109220000D03*
X194818000Y-109220000D03*
X191262000Y-111760000D03*
X194818000Y-111760000D03*
X191262000Y-114300000D03*
X194818000Y-114300000D03*
X191262000Y-116840000D03*
X194818000Y-116840000D03*
X191262000Y-119380000D03*
X194818000Y-119380000D03*
X191262000Y-121920000D03*
X194818000Y-121920000D03*
D16*
X103505000Y-113030000D03*
X100965000Y-113030000D03*
X106045000Y-113030000D03*
D18*
X208457800Y-102870000D03*
D19*
X204952600Y-102870000D03*
D20*
X199466200Y-102870000D03*
D21*
X206451200Y-98374200D03*
X206451200Y-107365800D03*
D22*
X99060000Y-107950000D03*
X99060000Y-97790000D03*
D23*
X105156000Y-102870000D03*
D24*
X107950000Y-102870000D03*
X107950000Y-100076000D03*
X107950000Y-105664000D03*
D25*
X198755000Y-94970600D03*
X203835000Y-94970600D03*
D26*
X102870000Y-87757000D03*
X102870000Y-85217000D03*
X102870000Y-82677000D03*
D27*
X99695000Y-90170000D03*
X99695000Y-80264000D03*
D28*
X96139000Y-91211400D03*
X96139000Y-79222600D03*
D27*
X208788000Y-82931000D03*
X198882000Y-82931000D03*
D26*
X202184000Y-82550000D03*
X202184000Y-85090000D03*
X202184000Y-87630000D03*
D27*
X205359000Y-80137000D03*
X205359000Y-90043000D03*
D28*
X208915000Y-79095600D03*
X208915000Y-91084400D03*
D27*
X198882000Y-122809000D03*
X208788000Y-122809000D03*
D29*
X205105000Y-120904000D03*
X202565000Y-120904000D03*
D27*
X207518000Y-124079000D03*
X200152000Y-124079000D03*
D30*
X208559400Y-127635000D03*
X199110600Y-127635000D03*
D23*
X197485000Y-109220000D03*
X202565000Y-109220000D03*
D31*
X202950000Y-113665000D03*
D32*
X199150000Y-114730000D03*
X199150000Y-112600000D03*
M02*
